<svg xmlns="http://www.w3.org/2000/svg" viewBox="0 0 960 1280">
  <defs>
    <radialGradient id="posterGlow" cx="50%" cy="35%" r="70%">
      <stop offset="0%" stop-color="#0ef2ff" stop-opacity="0.55" />
      <stop offset="65%" stop-color="#06192c" stop-opacity="0" />
    </radialGradient>
    <linearGradient id="posterBg" x1="50%" y1="0%" x2="50%" y2="100%">
      <stop offset="0%" stop-color="#050910" />
      <stop offset="100%" stop-color="#02040a" />
    </linearGradient>
    <linearGradient id="posterRing" x1="0%" y1="50%" x2="100%" y2="50%">
      <stop offset="0%" stop-color="#24f4ff" stop-opacity="0.1" />
      <stop offset="50%" stop-color="#24f4ff" stop-opacity="0.85" />
      <stop offset="100%" stop-color="#24f4ff" stop-opacity="0.1" />
    </linearGradient>
    <radialGradient id="posterSphere" cx="40%" cy="40%" r="65%">
      <stop offset="0%" stop-color="#ffffff" />
      <stop offset="80%" stop-color="#d9ecff" />
      <stop offset="100%" stop-color="#9fb7d0" />
    </radialGradient>
  </defs>
  <rect width="960" height="1280" fill="url(#posterBg)" />
  <rect width="960" height="1280" fill="url(#posterGlow)" />
  <path
    d="M280 320h240c140 0 218 60 218 170c0 74-36 132-110 157l124 230H600l-112-202H420v202H280V320zm242 260c72 0 110-26 110-88c0-54-34-84-110-84H420v172h102z"
    fill="url(#posterRing)"
    fill-opacity="0.35"
  />
  <ellipse cx="480" cy="500" rx="420" ry="160" fill="none" stroke="url(#posterRing)" stroke-width="22" opacity="0.85" />
  <ellipse cx="480" cy="580" rx="360" ry="130" fill="none" stroke="url(#posterRing)" stroke-width="14" opacity="0.6" />
  <circle cx="620" cy="460" r="70" fill="url(#posterSphere)" />
  <text x="480" y="790" text-anchor="middle" font-family="'Outfit', 'Segoe UI', sans-serif" font-size="120" font-weight="600" fill="#f8fbff" letter-spacing="4">
    Remnant
  </text>
  <line x1="340" y1="820" x2="620" y2="820" stroke="#24f4ff" stroke-width="8" stroke-linecap="round" />
  <text x="480" y="890" text-anchor="middle" font-family="'Outfit', 'Segoe UI', sans-serif" font-size="42" fill="#9cb5d4" letter-spacing="3">
    Fragments of life, preserved forever.
  </text>
</svg>
