<svg xmlns="http://www.w3.org/2000/svg" viewBox="0 0 160 160">
  <defs>
    <radialGradient id="glow" cx="50%" cy="50%" r="60%">
      <stop offset="0%" stop-color="#ffffff" stop-opacity="0.9" />
      <stop offset="70%" stop-color="#7cf2d0" stop-opacity="0.45" />
      <stop offset="100%" stop-color="#7cf2d0" stop-opacity="0" />
    </radialGradient>
    <linearGradient id="rGradient" x1="0%" y1="0%" x2="100%" y2="100%">
      <stop offset="0%" stop-color="#60c8ff" />
      <stop offset="100%" stop-color="#0d6d9c" />
    </linearGradient>
    <linearGradient id="ring" x1="0%" y1="50%" x2="100%" y2="50%">
      <stop offset="0%" stop-color="#7cf2d0" stop-opacity="0.1" />
      <stop offset="50%" stop-color="#7cf2d0" stop-opacity="0.8" />
      <stop offset="100%" stop-color="#7cf2d0" stop-opacity="0.1" />
    </linearGradient>
  </defs>
  <rect fill="none" x="0" y="0" width="160" height="160" rx="28" />
  <circle cx="80" cy="75" r="54" fill="url(#glow)" />
  <path
    d="M53 32h36c21 0 33 10 33 29c0 13-6 23-18 27l21 40h-23l-18-34h-16v34H53V32zm36 43c11 0 18-4 18-14c0-9-6-13-18-13h-16v27h16z"
    fill="url(#rGradient)"
  />
  <g fill="none" stroke="url(#ring)" stroke-width="8" stroke-linecap="round">
    <path
      d="M24 64c12-16 36-27 62-27s50 11 62 27"
      opacity="0.85"
    />
    <path
      d="M30 96c10 18 32 30 50 30c18 0 40-12 50-30"
      opacity="0.55"
    />
  </g>
  <circle cx="106" cy="68" r="16" fill="#f8fbff" />
</svg>
